<?xml version="1.0" standalone="no"?>
<!DOCTYPE svg PUBLIC "-//W3C//DTD SVG 20010904//EN"
 "http://www.w3.org/TR/2001/REC-SVG-20010904/DTD/svg10.dtd">
<svg version="1.0" xmlns="http://www.w3.org/2000/svg"
 width="600.000000pt" height="600.000000pt" viewBox="0 0 600.000000 600.000000"
 preserveAspectRatio="xMidYMid meet">
<g transform="translate(0.000000,600.000000) scale(0.100000,-0.100000)"
fill="#FF4761" stroke="none">
<path d="M3550 4590 c-153 -29 -223 -59 -343 -148 -118 -89 -219 -208 -275
-324 -18 -37 -32 -71 -32 -75 0 -5 -5 -25 -11 -45 -11 -41 -43 -53 -53 -20
-14 44 -204 212 -240 212 -7 0 -17 5 -24 12 -13 13 -61 32 -156 59 -57 17 -92
19 -195 16 -124 -3 -183 -15 -261 -51 -143 -66 -271 -201 -328 -343 -50 -124
-53 -145 -53 -313 -1 -199 13 -269 78 -408 10 -20 26 -49 37 -65 16 -21 17
-30 8 -39 -10 -10 -17 -10 -31 -1 -68 42 -315 62 -436 34 -188 -43 -300 -112
-355 -221 -29 -57 -25 -93 14 -153 41 -62 59 -74 145 -98 81 -23 133 -24 200
-2 63 20 84 9 57 -31 -47 -73 4 -185 94 -205 44 -10 115 3 141 25 25 22 49 17
49 -9 0 -13 15 -41 34 -63 33 -38 35 -39 96 -37 l62 1 -5 -34 c-8 -47 28 -111
83 -148 42 -28 46 -29 167 -28 69 0 130 5 136 10 7 5 46 19 87 32 41 13 112
41 157 62 79 39 82 39 112 24 17 -9 31 -23 31 -32 0 -8 -24 -43 -52 -77 -29
-35 -67 -81 -85 -102 -17 -22 -48 -58 -68 -80 -20 -22 -43 -50 -52 -62 -17
-25 -47 -29 -90 -12 -47 19 -216 80 -248 89 -72 21 -211 72 -219 81 -6 5 -29
9 -51 9 -35 0 -49 -7 -87 -43 -79 -75 -156 -214 -165 -299 -5 -52 -3 -61 17
-83 38 -40 86 -34 156 19 33 24 76 62 97 85 21 22 43 41 48 41 9 0 19 -4 77
-33 19 -9 38 -17 44 -17 5 0 24 -6 41 -14 18 -8 73 -27 122 -44 82 -26 123
-39 241 -73 66 -18 100 1 219 121 140 142 159 163 218 253 29 42 56 77 61 77
5 0 33 -18 62 -40 29 -22 55 -40 58 -40 3 0 25 -13 49 -30 25 -16 50 -30 57
-30 16 0 4 -96 -16 -127 -8 -12 -14 -33 -14 -46 0 -44 -13 -50 -250 -122 -25
-8 -65 -19 -90 -26 -25 -6 -60 -18 -78 -25 -18 -8 -42 -14 -53 -14 -11 0 -32
-6 -47 -14 -15 -7 -49 -17 -76 -21 -138 -20 -171 -67 -197 -282 -13 -107 -4
-177 28 -215 20 -23 59 -31 86 -17 29 15 77 60 77 73 0 5 6 17 13 25 7 9 22
43 31 76 35 115 9 99 261 151 193 40 222 47 253 60 18 8 40 14 48 14 45 0 204
104 204 133 0 5 6 23 14 40 7 18 28 84 45 147 18 63 37 130 43 148 5 19 14 57
18 85 5 29 13 70 19 92 6 22 11 57 11 77 0 43 21 81 77 141 21 23 96 119 166
212 70 94 131 175 137 182 5 7 10 14 10 17 0 3 19 32 43 66 47 68 59 76 227
145 63 26 143 60 178 76 35 16 67 29 72 29 4 0 21 6 37 14 38 19 125 58 193
87 30 13 58 27 61 32 4 5 15 7 25 5 17 -3 20 -19 30 -158 6 -85 14 -164 17
-175 3 -11 11 -63 16 -116 9 -81 8 -105 -5 -150 -43 -142 68 -278 192 -236 48
17 81 69 70 111 -8 33 -52 76 -77 76 -63 0 -4 88 136 202 86 70 144 130 176
183 21 36 24 52 24 150 0 106 -1 112 -33 169 l-34 58 34 28 c32 27 33 29 30
99 l-3 71 53 25 c28 14 55 25 60 25 4 0 8 -23 8 -50 0 -43 3 -52 24 -61 34
-16 56 0 124 89 33 43 67 83 76 91 19 16 21 66 4 78 -7 4 -38 11 -68 14 -30 4
-88 13 -128 19 -66 11 -74 11 -92 -5 -29 -26 -25 -59 11 -90 35 -29 34 -33
-19 -52 -55 -19 -67 -16 -83 20 -8 17 -26 38 -41 45 -33 16 -34 17 -8 82 30
75 26 143 -11 215 -43 85 -104 135 -247 205 -111 54 -212 126 -212 151 0 5 12
15 28 21 44 19 72 49 72 79 0 73 -75 125 -142 99 -66 -26 -118 -96 -118 -159
0 -14 10 -51 21 -81 15 -37 24 -90 29 -165 4 -60 10 -123 13 -140 4 -16 11
-77 17 -135 9 -88 19 -179 42 -359 3 -27 -8 -34 -92 -66 -25 -10 -58 -23 -75
-31 -16 -7 -55 -22 -85 -34 -56 -23 -140 -59 -195 -85 -16 -8 -42 -19 -57 -24
-26 -10 -28 -8 -28 14 0 13 5 27 10 30 12 8 101 190 125 255 75 211 90 294 90
520 0 166 -3 200 -18 229 -9 19 -17 42 -17 51 0 9 -11 37 -25 61 -13 24 -29
54 -34 65 -24 55 -171 173 -251 202 -52 20 -188 52 -213 51 -12 0 -65 -9 -117
-19z m205 -94 c136 -29 269 -134 326 -256 40 -85 49 -140 49 -294 0 -83 -5
-171 -11 -196 -6 -25 -14 -67 -19 -95 -4 -27 -13 -66 -20 -85 -27 -76 -41
-112 -57 -152 -24 -64 -175 -368 -185 -374 -4 -3 -8 -13 -8 -23 0 -32 -54 -66
-135 -87 -11 -3 -29 -10 -40 -14 -18 -9 -81 -33 -290 -112 -44 -16 -94 -36
-112 -44 -17 -8 -37 -14 -45 -14 -7 0 -22 -7 -32 -15 -11 -8 -29 -15 -41 -15
-12 0 -25 -4 -30 -8 -6 -5 -42 -21 -82 -37 -59 -23 -75 -26 -88 -15 -18 15
-78 6 -95 -15 -7 -8 -23 -15 -36 -15 -20 0 -24 5 -24 29 0 33 -23 61 -49 61
-17 0 -71 -53 -136 -133 -16 -20 -39 -40 -50 -44 -11 -3 -54 -22 -95 -41 -41
-20 -82 -35 -91 -35 -39 3 -449 432 -449 470 0 7 -6 16 -13 20 -19 12 -93 125
-128 195 -72 148 -99 261 -99 417 0 141 21 237 71 321 5 8 14 26 19 39 18 40
151 164 210 194 103 54 137 62 260 62 110 0 216 -20 245 -46 5 -5 15 -9 23 -9
8 0 34 -13 59 -30 24 -16 49 -30 54 -30 12 0 188 -175 234 -233 16 -20 34 -37
39 -37 20 0 46 34 46 59 0 47 36 135 117 285 7 13 43 56 79 95 132 143 262
220 429 256 79 17 127 17 200 1z m795 -348 c0 -13 73 -78 87 -78 6 0 13 -4 15
-8 2 -4 36 -25 76 -45 93 -47 191 -120 220 -166 36 -53 49 -130 33 -189 -6
-26 -17 -51 -22 -57 -15 -15 -29 14 -29 65 0 48 -19 113 -38 132 -7 7 -12 17
-12 23 0 25 -156 158 -217 185 -13 5 -23 14 -23 20 0 5 -6 10 -14 10 -8 0 -39
24 -70 53 -43 40 -56 60 -56 82 l0 28 25 -23 c14 -13 25 -27 25 -32z m10 -133
c13 -14 48 -42 79 -62 72 -50 169 -140 189 -178 26 -48 42 -106 42 -158 l0
-48 -50 -21 c-38 -16 -56 -31 -75 -63 -34 -59 -140 -137 -159 -118 -3 4 -6 40
-6 80 0 41 -4 93 -10 116 -5 23 -14 94 -19 157 -5 63 -17 153 -25 199 -15 80
-14 121 3 121 4 0 18 -11 31 -25z m403 -512 c13 -8 8 -31 -9 -37 -9 -3 -35 -6
-59 -6 -43 0 -43 0 -43 -36 0 -37 -25 -74 -50 -74 -7 0 -26 -6 -40 -14 -63
-32 -142 -66 -156 -66 -21 0 -30 18 -16 35 6 7 34 22 62 32 55 19 118 73 139
119 20 41 74 66 124 58 22 -3 43 -8 48 -11z m95 -15 c4 -19 -21 -49 -57 -68
-36 -19 -42 1 -14 48 19 32 31 42 47 40 11 -2 22 -11 24 -20z m2 -114 c0 -8
-8 -17 -17 -21 -10 -3 -25 -12 -33 -19 -27 -23 -69 -28 -76 -9 -9 22 3 32 62
54 52 19 64 18 64 -5z m23 -57 c7 -17 -23 -51 -62 -72 -29 -14 -35 -15 -48 -3
-20 21 -8 40 40 65 50 25 63 27 70 10z m-227 -41 c3 -14 3 -30 -1 -35 -8 -14
-40 -14 -64 -2 -17 10 -81 -6 -98 -23 -14 -14 -75 -36 -84 -30 -18 11 -8 35
19 44 15 6 35 15 44 20 10 6 29 10 42 10 14 0 28 5 31 11 10 15 45 28 77 28
21 1 29 -5 34 -23z m-306 -4 c0 -22 -19 -42 -39 -42 -9 0 -29 -7 -45 -15 -15
-8 -35 -15 -43 -15 -8 0 -27 -6 -41 -14 -15 -8 -45 -21 -67 -29 -154 -57 -272
-105 -308 -123 -34 -17 -53 -18 -63 -3 -9 16 35 49 67 49 14 0 29 4 35 9 9 9
77 36 119 48 11 3 40 14 65 25 43 19 58 25 128 54 74 32 108 47 132 60 35 19
60 17 60 -4z m5 -83 c7 -11 -22 -49 -38 -49 -5 0 -23 -6 -40 -14 -18 -7 -52
-21 -77 -31 -52 -21 -123 -51 -160 -67 -58 -25 -90 -38 -175 -74 -49 -20 -111
-47 -137 -60 -56 -29 -68 -30 -68 -6 0 36 44 70 121 95 42 14 99 34 125 45 27
11 76 30 109 43 33 13 64 27 70 31 5 4 15 8 21 8 14 0 17 1 139 53 90 39 101
41 110 26z m282 -4 c63 0 78 -26 76 -135 -1 -75 -5 -94 -36 -160 -21 -45 -60
-103 -97 -145 -34 -38 -67 -80 -73 -92 -10 -23 -31 -30 -41 -15 -3 5 -8 47
-10 93 -10 152 -18 223 -33 302 -16 83 -13 107 13 107 15 0 31 8 104 46 14 8
32 10 40 7 8 -4 34 -7 57 -8z m166 -12 c28 -32 57 -126 57 -184 0 -105 -53
-179 -248 -349 -57 -49 -115 -151 -106 -185 3 -11 -2 -29 -10 -40 -14 -17 -17
-18 -26 -5 -17 23 -3 95 26 142 15 24 62 79 103 123 90 94 130 146 153 196 25
55 41 152 34 201 -4 23 -9 60 -12 81 -7 40 4 47 29 20z m-3349 -173 c89 -23
118 -40 148 -89 12 -20 27 -40 33 -46 7 -5 27 -30 45 -55 19 -25 47 -57 62
-71 15 -14 28 -29 28 -33 0 -5 -18 -28 -39 -52 -40 -45 -111 -158 -111 -175 0
-25 -41 -87 -62 -93 -48 -12 -77 -7 -94 20 -16 24 -16 29 0 74 10 27 15 58 11
70 -9 29 -58 26 -95 -6 -29 -27 -61 -48 -90 -59 -8 -4 -23 -11 -32 -16 -49
-26 -98 1 -98 54 0 27 12 43 72 99 40 38 76 68 80 68 4 0 8 13 8 28 0 20 -7
33 -24 41 -20 11 -31 9 -77 -12 -103 -47 -147 -57 -258 -56 -123 0 -182 21
-213 76 -17 28 -17 35 -5 65 37 87 179 165 342 188 89 13 282 2 369 -20z
m2096 -125 c0 -8 -9 -23 -20 -32 -11 -10 -20 -21 -20 -26 0 -4 -27 -44 -60
-87 -33 -43 -60 -82 -60 -86 0 -6 -32 -47 -75 -96 -8 -10 -15 -21 -15 -24 0
-6 -66 -91 -80 -104 -3 -3 -21 -25 -40 -50 -19 -25 -75 -93 -125 -151 -136
-160 -168 -199 -190 -230 -11 -16 -27 -29 -36 -29 -9 0 -55 29 -102 65 -48 36
-89 65 -92 65 -2 0 -51 34 -107 75 -57 41 -113 82 -125 90 -33 23 -29 33 20
55 31 15 65 20 129 20 130 0 198 37 198 107 0 24 8 45 22 60 l21 23 -23 24
c-26 28 -21 56 10 56 28 0 128 34 225 76 17 7 68 27 115 44 130 48 163 61 192
76 14 8 32 14 40 14 7 0 49 18 93 40 88 43 105 47 105 25z m-1660 -312 c0 -13
-4 -23 -8 -23 -16 0 -52 -59 -64 -103 -22 -84 32 -139 120 -122 42 8 144 42
182 60 14 6 41 19 60 28 84 37 157 70 188 84 30 14 92 81 92 99 0 11 41 54 52
54 12 0 10 -34 -4 -48 -18 -18 9 -34 45 -27 25 4 27 2 25 -23 -3 -24 1 -27 30
-30 19 -2 44 4 57 12 47 31 73 13 38 -26 -11 -12 -30 -18 -59 -18 -24 0 -45
-4 -48 -9 -6 -10 20 -35 47 -44 10 -4 17 -13 15 -20 -3 -8 -39 -14 -114 -17
-83 -4 -118 -10 -146 -25 -277 -148 -466 -214 -607 -215 -84 0 -136 24 -147
67 -20 78 15 192 111 358 52 91 53 91 97 48 22 -22 38 -47 38 -60z m741 22 c0
-13 -41 -19 -41 -7 0 11 20 22 33 18 5 -1 8 -6 8 -11z m-654 -91 c15 -14 39
-34 53 -44 23 -17 24 -20 9 -35 -8 -8 -43 -20 -77 -26 -80 -14 -95 -5 -78 49
27 87 47 99 93 56z m468 -384 c10 -11 24 -20 31 -20 7 0 16 -9 19 -20 5 -15
-5 -34 -37 -73 -24 -28 -52 -63 -63 -76 -93 -113 -238 -267 -266 -282 -18 -9
-61 2 -224 58 -38 14 -83 28 -100 33 -16 5 -68 23 -115 41 -47 17 -104 38
-128 47 l-42 14 -80 -76 c-90 -86 -124 -106 -143 -87 -19 19 43 131 150 270 5
8 64 2 76 -7 7 -5 48 -21 92 -35 44 -14 139 -47 210 -73 169 -60 218 -74 247
-67 42 10 209 199 292 331 29 46 53 53 81 22z m591 -102 c-7 -40 -33 -128 -52
-183 -8 -23 -14 -47 -14 -55 0 -26 -68 -227 -85 -254 -10 -14 -26 -26 -36 -26
-10 0 -20 -4 -24 -10 -3 -5 -20 -14 -38 -19 -18 -5 -52 -17 -77 -27 -25 -9
-76 -23 -115 -30 -124 -22 -189 -35 -241 -50 -28 -8 -60 -14 -72 -14 -12 0
-40 -7 -62 -16 -44 -18 -72 -59 -84 -126 -4 -20 -13 -50 -21 -65 -8 -15 -15
-35 -15 -44 0 -18 -46 -46 -57 -35 -12 11 -4 136 13 226 12 63 22 89 38 101
12 8 77 30 146 48 69 18 143 39 165 46 22 7 69 20 105 30 36 9 81 23 100 30
19 7 62 20 95 30 101 31 118 56 161 240 11 46 26 80 43 100 45 50 91 112 91
124 0 6 10 11 21 11 19 0 21 -4 15 -32z"/>
<path d="M3547 3638 c-12 -6 -17 -22 -17 -53 0 -37 -6 -50 -35 -80 -50 -49
-86 -48 -142 5 -39 36 -45 39 -68 28 -14 -6 -24 -14 -22 -17 1 -3 9 -17 16
-31 7 -14 29 -38 49 -55 31 -26 43 -30 98 -30 50 0 69 5 94 23 27 21 35 22 60
12 40 -17 75 -10 75 15 0 14 -8 21 -30 25 -21 4 -31 11 -33 28 -3 20 1 22 41
22 30 0 49 6 60 18 29 32 21 42 -38 42 -49 0 -55 2 -61 24 -7 29 -24 38 -47
24z"/>
<path d="M2826 3435 c-9 -9 -16 -27 -16 -40 0 -40 -44 -75 -93 -75 -46 0 -78
18 -126 67 -37 39 -67 36 -56 -6 13 -54 10 -65 -20 -80 -38 -20 -44 -28 -38
-52 8 -28 45 -23 79 11 31 31 64 40 64 16 0 -8 -12 -24 -26 -35 -16 -13 -24
-27 -20 -36 9 -24 40 -18 71 15 25 26 33 29 70 23 51 -6 89 11 133 62 37 42
48 78 36 114 -11 31 -36 38 -58 16z"/>
<path d="M3153 3281 c-13 -11 -32 -17 -46 -14 -13 3 -28 -2 -36 -11 -10 -12
-9 -18 8 -35 48 -48 139 -2 132 67 -2 18 -33 14 -58 -7z"/>
<path d="M3305 3131 c-22 -49 -49 -75 -97 -96 -81 -33 -206 -8 -218 45 -5 22
-37 42 -52 33 -5 -2 -8 -15 -8 -28 0 -14 -13 -34 -31 -49 -19 -16 -29 -32 -25
-41 7 -19 40 -19 60 0 21 21 32 19 73 -12 32 -25 44 -28 113 -27 118 1 198 48
242 141 23 50 18 73 -15 73 -18 0 -28 -10 -42 -39z"/>
</g>
</svg>
